<svg version="1.1" id="Слой_1" xmlns="http://www.w3.org/2000/svg" xmlns:xlink="http://www.w3.org/1999/xlink" x="0px"
	y="0px" viewBox="0 0 1920 1080" style="enable-background:new 0 0 1920 1080;" xml:space="preserve">
	<style type="text/css">
		.st0 {
			fill: #FFFFFF;
		}

		.st1 {
			fill: aqua;
		}

		.st2 {
			font-family: 'MyriadPro-Regular';
		}

		.st3 {
			font-size: 51px;
		}

		.st4 {
			fill: #FFFFFF;
			stroke: #000000;
			stroke-width: 2;
			stroke-miterlimit: 10;
		}
	</style>
	<g>
		<path d="M813.75,233.5v2l221.5,0c13.69,0,26.56,5.33,36.24,15.01c9.68,9.68,15.01,22.55,15.01,36.24
		c0,28.26-22.99,51.25-51.25,51.25l-221.5,0c-28.26,0-51.25-22.99-51.25-51.25c0-28.26,22.99-51.25,51.25-51.25V233.5 M813.75,233.5
		c-29.41,0-53.25,23.84-53.25,53.25v0c0,29.41,23.84,53.25,53.25,53.25l221.5,0c29.41,0,53.25-23.84,53.25-53.25v0
		c0-29.41-23.84-53.25-53.25-53.25L813.75,233.5L813.75,233.5z" />
	</g>
	<polygon class="st1" points="824.38,267 868.43,267 868.43,267 824.38,267 " />
	<text transform="matrix(1 0 0 1 840.8296 298.7139)" class="st2 st3">Пункт 1</text>
	<g>
		<path d="M1101.35,515.5v2l302.31,0c5.98,0,10.85,4.87,10.85,10.85l0,80.81c0,5.98-4.87,10.85-10.85,10.85l-302.31,0
		c-5.98,0-10.85-4.87-10.85-10.85l0-80.81c0-5.98,4.87-10.85,10.85-10.85V515.5 M1101.35,515.5c-7.09,0-12.85,5.75-12.85,12.85
		l0,80.81c0,7.09,5.75,12.85,12.85,12.85l302.31,0c7.09,0,12.85-5.75,12.85-12.85l0-80.81c0-7.09-5.75-12.85-12.85-12.85
		L1101.35,515.5L1101.35,515.5z" />
	</g>
	<polygon class="st1" points="1152.38,549 1196.43,549 1196.43,549 1152.38,549 " />
	<text transform="matrix(1 0 0 1 1127.52 580.7139)" class="st2 st3">Подпункт 2</text>
	<g>
		<path d="M445.35,515.5v2l302.31,0c5.98,0,10.85,4.87,10.85,10.85l0,80.81c0,5.98-4.87,10.85-10.85,10.85l-302.31,0
		c-5.98,0-10.85-4.87-10.85-10.85l0-80.81c0-5.98,4.87-10.85,10.85-10.85V515.5 M445.35,515.5c-7.09,0-12.85,5.75-12.85,12.85
		l0,80.81c0,7.09,5.75,12.85,12.85,12.85l302.31,0c7.09,0,12.85-5.75,12.85-12.85l0-80.81c0-7.09-5.75-12.85-12.85-12.85
		L445.35,515.5L445.35,515.5z" />
	</g>
	<polygon class="st1" points="496.38,549 540.43,549 540.43,549 496.38,549 " />
	<text transform="matrix(1 0 0 1 471.52 580.7139)" class="st2 st3">Подпункт 1</text>
	<path class="st4" d="M760,287" />
	<line class="st4" x1="596" y1="287" x2="596.5" y2="515.5" />
	<line class="st4" x1="1254" y1="287" x2="1254.5" y2="515.5" />
	<line class="st4" x1="760.5" y1="287.1" x2="595" y2="287.45" />
	<line class="st4" x1="1254.5" y1="286.1" x2="1089" y2="286.45" />
</svg>